<svg xmlns="http://www.w3.org/2000/svg" viewBox="0 0 141.73 140.28"><defs><style>.cls-1{fill:#f7f8f8;}</style></defs><g id="圖層_2" data-name="圖層 2"><g id="圖層_1-2" data-name="圖層 1"><path class="cls-1" d="M98.8,43.67a51.85,51.85,0,0,0-59-6.43c1.47-.11,2.94-.16,4.41-.16a65.43,65.43,0,0,1,43.89,17.3Z"/><path class="cls-1" d="M22.41,42v0l1.68-1.66a58.63,58.63,0,0,1,55.49-14.4,44,44,0,0,0-21.36-22L57.5,3.6A40.07,40.07,0,0,0,4.44,23.5C-2.65,38.72-.68,56.08,6.34,77.82A58.34,58.34,0,0,1,22.41,42Z"/><path class="cls-1" d="M118.23,31.92A44,44,0,0,0,89.07,29.3a58.21,58.21,0,0,1,17.09,11.86l2.42,2.43L88.14,64l-2.43-2.42a59.74,59.74,0,0,0-31.78-16.8A91.06,91.06,0,0,1,82.77,64.55L85.2,67l-36.09,36.1-2.43-2.44A91.66,91.66,0,0,1,26.94,71.72a59.73,59.73,0,0,0,16.8,31.85L46.17,106,25.73,126.45l-.6-.6c.16.38.32.74.47,1.12l5.57,13.31,13.74-4.23c19.72-6.13,36.73-11.41,50.79-17.18L67.63,90.82,72.49,86l30,30C119.61,108.1,131.58,99,137.8,85.69l.33-.72A40.05,40.05,0,0,0,118.23,31.92Z"/><path class="cls-1" d="M28.84,46.71c-.77,14.65,6.81,32,20.32,46.6L75.44,67C61.07,53.71,43.36,46,28.84,46.71Z"/><path class="cls-1" d="M25.8,116.66l10.72-10.72a65.09,65.09,0,0,1-17.15-48.3A51.88,51.88,0,0,0,25.8,116.66Z"/></g></g></svg>