<svg xmlns="http://www.w3.org/2000/svg" viewBox="0 0 100 97.46"><defs><style>.cls-1{fill:#fff;}</style></defs><g id="圖層_2" data-name="圖層 2"><g id="圖層_3" data-name="圖層 3"><path class="cls-1" d="M31.61,97.46a9.19,9.19,0,0,1-7.37-4.09,2.52,2.52,0,0,1-.5-1.91,2.62,2.62,0,0,1,1-1.68,2.51,2.51,0,0,1,1.54-.54,2.62,2.62,0,0,1,2.05,1c1.07,1.4,2.11,2,3.27,2a4.4,4.4,0,0,0,1.84-.46,5.88,5.88,0,0,0,3.27-4.06l9.64-37.47a7.35,7.35,0,0,0-2.07-.3,7,7,0,0,0-.79,0l-10.28,1c-.43,0-.86.06-1.28.06a12.93,12.93,0,0,1-9.45-4A20.93,20.93,0,0,0,12.17,41.4a2.45,2.45,0,0,1-1.63-1.11,2.55,2.55,0,0,1-.3-2,2.47,2.47,0,0,1,2.44-2,2.57,2.57,0,0,1,.67.09,25.56,25.56,0,0,1,12.89,7.26,7.86,7.86,0,0,0,5.66,2.4,7.32,7.32,0,0,0,.81,0L43,44.94a11.38,11.38,0,0,1,1.31-.07,12.71,12.71,0,0,1,8.66,3.42c3.13,2.87,7.91,6.51,12.88,7.56a9.56,9.56,0,0,0,1.77.17,16.74,16.74,0,0,0,5.48-1.22,21.83,21.83,0,0,1,7.23-1.53c4,0,8.21,1.81,12.7,5.53.65.59,1.24,1.07,1.77,1.48.17-9.68-1.64-34.78-23.56-46.53C74.27,22.6,74.15,35,74.09,37.56v.11A2.6,2.6,0,0,1,71.52,40h-.16A2.66,2.66,0,0,1,69,37.32c.27-3.59-.26-21.71-5.18-26.75-.88-.3-1.77-.57-2.67-.82l-.35-.08-1.11-.23c-6.06.88-17.36,15.79-21.89,22.89a2.51,2.51,0,0,1-2.17,1.25,2.81,2.81,0,0,1-1.34-.35l0,0,0,0a2.6,2.6,0,0,1-.77-3.55c.1-.16,9-14.2,17.91-21.29-1.39-.1-2.76-.15-4.1-.15-11.41,0-21.37,3.48-29.6,10.35A45.55,45.55,0,0,0,5.06,34.45l0,.08A2.52,2.52,0,0,1,2.6,36.11a2.71,2.71,0,0,1-1-.13A2.6,2.6,0,0,1,.18,32.62l.07-.16A50.63,50.63,0,0,1,14.1,14.66C20.46,9.39,31.4,3.11,47.4,3.11A69.56,69.56,0,0,1,59.23,4.16l1.89.3.65-2.55A2.58,2.58,0,0,1,65,.1a2.64,2.64,0,0,1,1.9,3.05l-.7,2.73C81,11,91.18,21.22,96.36,36.24a72.73,72.73,0,0,1,3.49,27.44,3.4,3.4,0,0,1-2.21,3,2.84,2.84,0,0,1-1.34.23,3.9,3.9,0,0,1-2.39-.9,13.94,13.94,0,0,0-1.57-1.23c-.67-.5-1.54-1.19-2.65-2.1-3.6-3-6.58-4.37-9.38-4.37a17.23,17.23,0,0,0-5.47,1.22l-.33.12a21.88,21.88,0,0,1-7.08,1.46,14.55,14.55,0,0,1-2.63-.25c-5.54-1.09-10.51-4.57-14-7.6L41.63,89a11,11,0,0,1-6.2,7.54A8.68,8.68,0,0,1,31.61,97.46Z"/></g></g></svg>